<svg xmlns="http://www.w3.org/2000/svg" version="1.1" xmlns:xlink="http://www.w3.org/1999/xlink" xmlns:svgjs="http://svgjs.dev/svgjs" viewBox="0 0 800 800"><defs><filter id="uuunion-blur" x="-100%" y="-100%" width="400%" height="400%" color-interpolation-filters="sRGB">
        <feGaussianBlur in="SourceGraphic" stdDeviation="7.5 0" result="blur"></feGaussianBlur>
        <feDropShadow stdDeviation="12.307692307692308" in="blur" dx="10" dy="10" flood-color="hsl(0, 0%, 100%)" flood-opacity="0.25" x="0%" y="0%" width="100%" height="100%"></feDropShadow>
      </filter><filter id="uuunion-blur2" x="-100%" y="-100%" width="400%" height="400%" color-interpolation-filters="sRGB">
        <feGaussianBlur in="SourceGraphic" stdDeviation="7.5 0" result="blur"></feGaussianBlur>
        <feDropShadow stdDeviation="12.307692307692308" in="blur" dx="-10" dy="-10" flood-color="hsl(0, 0%, 100%)" flood-opacity="0.25" x="0%" y="0%" width="100%" height="100%"></feDropShadow>
      </filter><linearGradient gradientTransform="rotate(0, 0.5, 0.5)" x1="50%" y1="0%" x2="50%" y2="100%" id="uuunion-grad"><stop stop-color="hsl(205, 69%, 80%)" offset="10%"></stop><stop stop-color="hsl(0, 0%, 100%)" offset="90%"></stop></linearGradient><linearGradient gradientTransform="rotate(135, 0.5, 0.5)" x1="50%" y1="0%" x2="50%" y2="100%" id="uuunion-grad2"><stop stop-color="hsl(205, 69%, 80%)" offset="25%"></stop><stop stop-color="hsl(0, 0%, 100%)" offset="100%"></stop></linearGradient><linearGradient gradientTransform="rotate(333, 0.5, 0.5)" x1="50%" y1="0%" x2="50%" y2="100%" id="uuunion-grad3"><stop stop-color="hsl(205, 69%, 80%)" offset="0%"></stop><stop stop-color="hsl(0, 0%, 100%)" offset="75%"></stop></linearGradient></defs><path d="M-79.27 -81.47Q-64.53 -78.61 -49.79 -75.9 -35.05 -73.62 -20.31 -72.01 -5.57 -71.25 9.17 -71.4 23.91 -72.46 38.65 -74.32 53.39 -76.77 68.13 -79.56 82.87 -82.4 97.61 -84.99 112.35 -87.05 127.09 -88.36 141.84 -88.79 156.58 -88.3 171.32 -86.93 186.06 -84.83 200.8 -82.22 215.54 -79.38 230.28 -76.6 245.02 -74.18 259.76 -72.37 274.51 -71.36 289.25 -71.27 303.99 -72.09 318.73 -73.75 333.47 -76.07 348.21 -78.8 362.95 -81.65 377.69 -84.33 392.44 -86.56 407.18 -88.09 421.92 -88.77 436.66 -88.52 451.4 -87.38 466.14 -85.46 480.88 -82.96 495.62 -80.15 510.36 -77.32 525.11 -74.78 539.85 -72.78 554.59 -71.55 569.33 -71.2 584.07 -71.79 598.81 -73.23 613.55 -75.39 628.29 -78.04 643.03 -80.89 657.78 -83.65 672.52 -86.02 687.26 -87.76 702 -88.68 716.74 -88.68 731.48 -87.77 746.22 -86.04 760.96 -83.67 775.7 -80.92 790.45 -78.06 805.19 -75.42 819.93 -73.25 834.67 -71.79 849.41 -71.2 864.15 -71.54 857.79 -56.32 855.93 -41.11 858.96 -25.89 866.27 -10.68 876.36 4.53 887.19 19.75 896.56 34.96 902.56 50.18 903.98 65.4 900.54 80.61 892.92 95.83 882.67 111.04 871.88 126.26 862.74 141.48 857.11 156.69 856.12 171.91 859.98 187.13 867.9 202.34 878.28 217.56 889.01 232.77 897.91 247.99 903.17 263.21 903.72 278.42 899.46 293.64 891.24 308.85 880.74 324.07 870.09 339.29 861.45 354.5 856.57 369.72 856.46 384.94 861.12 400.15 869.62 415.37 880.22 430.58 890.78 445.8 899.15 461.02 903.63 476.23 903.3 491.45 898.25 506.67 889.49 521.88 878.8 537.1 868.35 552.31 860.27 567.53 856.19 582.75 856.95 597.96 862.39 613.18 871.4 628.39 882.16 643.61 892.48 658.83 900.26 674.04 903.93 689.26 902.74 704.48 896.93 719.69 887.68 734.91 876.87 750.12 866.69 765.34 859.22 780.56 855.97 795.77 857.59 810.99 863.77 826.2 873.24 841.42 884.08 856.64 894.09 871.85 901.24 887.07 904.08 902.29 888.69 903.17 873.29 901.61 857.9 897.78 842.5 892.07 827.11 885.09 811.72 877.57 796.32 870.3 780.93 864.06 765.54 859.5 750.14 857.1 734.75 857.11 719.36 859.53 703.96 864.11 688.57 870.36 673.18 877.63 657.78 885.15 642.39 892.13 627 897.82 611.6 901.64 596.21 903.17 580.82 902.27 565.42 899.01 550.03 893.75 534.64 887.05 519.24 879.59 503.85 872.18 488.45 865.6 473.06 860.53 457.67 857.51 442.27 856.86 426.88 858.65 411.49 862.69 396.09 868.56 380.7 875.62 365.31 883.15 349.91 890.35 334.52 896.46 319.13 900.83 303.73 903 288.34 902.75 272.95 900.1 257.55 895.33 242.16 888.95 226.77 881.62 211.37 874.12 195.98 867.24 180.58 861.71 165.19 858.1 149.8 856.8 134.4 857.94 119.01 861.41 103.62 866.84 88.22 873.65 72.83 881.13 57.44 888.5 42.04 894.96 26.65 899.85 11.26 902.65 -4.13 903.06 -19.52 901.04 -34.91 896.8 -50.31 890.79 -65.7 883.64 -81.09 876.11 -80.96 861.15 -80.64 846.18 -80.18 831.22 -79.69 816.26 -79.25 801.3 -78.97 786.33 -78.9 771.37 -79.05 756.41 -79.39 741.45 -79.85 726.49 -80.35 711.52 -80.77 696.56 -81.03 681.6 -81.09 666.64 -80.92 651.67 -80.56 636.71 -80.09 621.75 -79.6 606.79 -79.19 591.82 -78.94 576.86 -78.91 561.9 -79.09 546.94 -79.46 531.98 -79.94 517.01 -80.43 502.05 -80.83 487.09 -81.06 472.13 -81.07 457.16 -80.87 442.2 -80.49 427.24 -80.01 412.28 -79.52 397.31 -79.13 382.35 -78.92 367.39 -78.93 352.43 -79.15 337.47 -79.54 322.5 -80.03 307.54 -80.51 292.58 -80.88 277.62 -81.08 262.65 -81.05 247.69 -80.81 232.73 -80.41 217.77 -79.92 202.8 -79.44 187.84 -79.08 172.88 -78.91 157.92 -78.95 142.96 -79.21 127.99 -79.62 113.03 -80.12 98.07 -80.58 83.11 -80.93 68.14 -81.09 53.18 -81.02 38.22 -80.75 23.26 -80.32 8.29 -79.83 -6.66 -79.37 -21.62 -79.04 -36.58 -78.9 -51.54 -78.98 -66.51 -79.27 -81.47" fill="url(#uuunion-grad)"></path><path d="M-79.27 -81.47Q-78.98 -66.51 -78.9 -51.54 -79.04 -36.58 -79.37 -21.62 -79.83 -6.66 -80.32 8.29 -80.75 23.26 -81.02 38.22 -81.09 53.18 -80.93 68.14 -80.58 83.11 -80.12 98.07 -79.62 113.03 -79.21 127.99 -78.95 142.96 -78.91 157.92 -79.08 172.88 -79.44 187.84 -79.92 202.8 -80.41 217.77 -80.81 232.73 -81.05 247.69 -81.08 262.65 -80.88 277.62 -80.51 292.58 -80.03 307.54 -79.54 322.5 -79.15 337.47 -78.93 352.43 -78.92 367.39 -79.13 382.35 -79.52 397.31 -69.63 400.78 -59.75 404.21 -49.86 407.44 -39.97 410.32 -30.09 412.71 -20.2 414.51 -1.67 415.89 1.53 415.98 13.64 408.87 25.67 400.67 37.67 391.54 49.66 381.7 61.68 371.41 73.78 360.97 85.99 350.7 98.34 340.88 110.86 331.76 123.56 323.55 136.46 316.38 149.56 310.3 162.85 305.28 176.29 301.23 189.88 297.97 203.55 295.27 217.26 292.87 230.96 290.48 244.6 287.82 258.1 284.64 271.42 280.72 284.51 275.9 297.31 270.09 309.8 263.26 321.95 255.48 333.75 246.87 345.2 237.61 356.32 227.93 367.15 218.08 377.74 208.33 388.15 198.94 398.44 190.12 408.71 182.05 419.03 174.86 429.5 168.6 440.2 163.26 451.21 158.75 462.61 154.95 474.46 151.66 486.79 148.65 499.65 145.7 513.03 142.55 526.93 138.99 541.31 134.82 556.12 129.91 571.29 124.17 586.74 117.57 602.35 110.15 618.02 102.02 633.63 93.32 649.05 84.23 664.17 74.98 678.87 65.78 693.06 56.84 706.66 48.36 719.59 40.49 731.83 33.33 743.36 26.95 754.18 21.33 764.34 16.43 773.9 12.12 782.95 8.25 791.61 4.65 800 1.12 788.87 -16.4 780.8 -33.93 778 -51.46 781.24 -68.99 789.64 -86.52 800.88 -104.05 811.88 -121.58 819.61 -139.11 804.35 -141.65 789.1 -144.03 773.84 -145.98 758.59 -147.31 743.33 -147.88 728.08 -147.63 712.82 -146.58 697.57 -144.85 682.31 -142.61 667.06 -140.1 651.8 -137.58 636.55 -135.31 621.29 -133.53 606.04 -132.42 590.78 -132.1 575.53 -132.6 560.27 -133.87 545.02 -135.78 529.76 -138.13 514.51 -140.67 499.25 -143.14 484 -145.28 468.74 -146.88 453.49 -147.75 438.23 -147.82 422.98 -147.08 407.72 -145.6 392.47 -143.53 377.21 -141.1 361.96 -138.55 346.7 -136.15 331.45 -134.15 316.19 -132.76 300.94 -132.13 285.68 -132.31 270.43 -133.29 255.17 -134.97 239.92 -137.17 224.66 -139.67 209.41 -142.2 194.15 -144.5 178.89 -146.33 163.64 -147.5 148.38 -147.89 133.13 -147.46 117.87 -146.25 102.62 -144.39 87.36 -142.07 72.11 -139.54 56.85 -137.05 41.6 -134.87 26.34 -133.22 11.09 -132.28 -4.16 -132.14 -19.41 -132.82 -34.67 -134.24 -49.92 -136.27 -65.18 -138.68 -80.43 -141.23 -95.69 -143.65 -110.94 -145.69 -126.2 -147.14 -135.68 -134.63 -117.39 -116.9 -107.68 -108.4 -98.08 -99.63 -88.61 -90.63 -79.27 -81.47" fill="url(#uuunion-grad2)" filter="url(#uuunion-blur)"></path><path d="M790.52 401.79Q800.41 405.18 810.3 408.32 820.18 411.07 830.07 413.3 839.96 414.9 849.84 415.81 859.73 415.96 869.62 415.37 880.22 430.58 890.78 445.8 899.15 461.02 903.63 476.23 903.3 491.45 898.25 506.67 889.49 521.88 878.8 537.1 868.35 552.31 860.27 567.53 856.19 582.75 856.95 597.96 862.39 613.18 871.4 628.39 882.16 643.61 892.48 658.83 900.26 674.04 903.93 689.26 902.74 704.48 896.93 719.69 887.68 734.91 876.87 750.12 866.69 765.34 859.22 780.56 855.97 795.77 857.59 810.99 863.77 826.2 873.24 841.42 884.08 856.64 894.09 871.85 901.24 887.07 904.08 902.29 889.95 903.19 875.83 902.03 861.7 898.92 847.57 894.12 833.44 888.07 819.32 881.3 805.19 874.41 791.06 868.02 776.94 862.69 762.81 858.91 748.68 856.99 734.56 857.12 720.43 859.29 706.3 863.29 692.18 868.78 678.05 875.27 663.92 882.17 649.8 888.89 635.67 894.81 621.54 899.41 607.42 902.29 593.29 903.19 579.16 902.03 565.04 898.9 550.91 894.1 536.78 888.04 522.66 881.27 508.53 874.39 494.4 868 480.28 862.68 466.15 858.9 452.02 856.99 437.9 857.13 423.77 859.3 409.64 863.31 395.52 868.8 381.39 875.29 367.26 882.2 353.14 888.91 339.01 894.83 324.88 899.43 310.76 902.3 296.63 903.19 282.5 902.02 268.38 898.89 254.25 894.08 240.12 888.02 226 881.25 211.87 874.36 197.74 867.98 183.62 862.66 169.49 858.88 155.36 856.99 141.24 857.13 127.11 859.31 112.98 863.33 98.86 868.83 84.73 875.32 70.6 882.23 56.47 888.93 42.35 894.85 28.22 899.44 7 897.67 -0.22 882.89 -0.43 872.74 -0.69 862.59 -0.98 852.44 -1.27 842.29 -1.4 827.07 -0.77 822 11.32 814.85 23.41 806.16 35.52 796.14 47.69 785.05 59.95 773.28 72.33 761.22 84.86 749.3 97.56 737.94 110.44 727.51 123.5 718.3 136.72 710.52 150.1 704.27 163.6 699.53 177.17 696.19 190.79 694.01 204.39 692.69 217.92 691.85 231.32 691.11 244.55 690.05 257.55 688.3 270.29 685.54 282.73 681.51 294.85 676.08 306.65 669.19 318.12 660.9 329.3 651.37 340.21 640.87 350.91 629.7 361.45 618.24 371.91 606.86 382.35 595.94 392.87 585.83 403.55 576.78 414.47 569.01 425.7 562.6 437.32 557.55 449.37 553.77 461.89 551.05 474.91 549.14 488.43 547.7 502.44 546.38 516.9 544.82 531.74 542.67 546.91 539.65 562.31 535.52 577.84 530.14 593.39 523.47 608.84 515.54 624.08 506.49 639 496.55 653.49 485.98 667.47 475.11 680.84 464.28 693.57 453.83 705.63 444.06 716.99 435.22 727.69 427.49 737.76 420.96 747.29 415.64 756.35 411.45 765.07 408.22 773.58 405.73 786.27 402.74 790.52 401.79" fill="url(#uuunion-grad3)" filter="url(#uuunion-blur2)"></path></svg>