<svg xmlns="http://www.w3.org/2000/svg" version="1.1" xmlns:xlink="http://www.w3.org/1999/xlink" xmlns:svgjs="http://svgjs.dev/svgjs" viewBox="0 0 2400 800"><defs><linearGradient x1="50%" y1="0%" x2="50%" y2="100%" id="sssurf-grad"><stop stop-color="hsl(208, 77%, 50%)" stop-opacity="1" offset="0%"></stop><stop stop-color="hsl(208, 74%, 93%)" stop-opacity="1" offset="100%"></stop></linearGradient></defs><g fill="url(#sssurf-grad)" transform="matrix(1,0,0,1,0,-92.59884643554688)"><path d="M 0 335.46397256804886 Q 450 516.8195829678126 600 330.2939025175893 Q 1050 576.865878659349 1200 305.1977264534213 Q 1650 476.4300375680506 1800 327.1182278828518 Q 2250 572.7243258207235 2400 330.70121660002746 L 2400 800 L 0 800 L 0 340.99856342946913 Z" transform="matrix(1,0,0,1,0,35)" opacity="0.05"></path><path d="M 0 335.46397256804886 Q 450 516.8195829678126 600 330.2939025175893 Q 1050 576.865878659349 1200 305.1977264534213 Q 1650 476.4300375680506 1800 327.1182278828518 Q 2250 572.7243258207235 2400 330.70121660002746 L 2400 800 L 0 800 L 0 340.99856342946913 Z" transform="matrix(1,0,0,1,0,70)" opacity="0.21"></path><path d="M 0 335.46397256804886 Q 450 516.8195829678126 600 330.2939025175893 Q 1050 576.865878659349 1200 305.1977264534213 Q 1650 476.4300375680506 1800 327.1182278828518 Q 2250 572.7243258207235 2400 330.70121660002746 L 2400 800 L 0 800 L 0 340.99856342946913 Z" transform="matrix(1,0,0,1,0,105)" opacity="0.37"></path><path d="M 0 335.46397256804886 Q 450 516.8195829678126 600 330.2939025175893 Q 1050 576.865878659349 1200 305.1977264534213 Q 1650 476.4300375680506 1800 327.1182278828518 Q 2250 572.7243258207235 2400 330.70121660002746 L 2400 800 L 0 800 L 0 340.99856342946913 Z" transform="matrix(1,0,0,1,0,140)" opacity="0.53"></path><path d="M 0 335.46397256804886 Q 450 516.8195829678126 600 330.2939025175893 Q 1050 576.865878659349 1200 305.1977264534213 Q 1650 476.4300375680506 1800 327.1182278828518 Q 2250 572.7243258207235 2400 330.70121660002746 L 2400 800 L 0 800 L 0 340.99856342946913 Z" transform="matrix(1,0,0,1,0,175)" opacity="0.68"></path><path d="M 0 335.46397256804886 Q 450 516.8195829678126 600 330.2939025175893 Q 1050 576.865878659349 1200 305.1977264534213 Q 1650 476.4300375680506 1800 327.1182278828518 Q 2250 572.7243258207235 2400 330.70121660002746 L 2400 800 L 0 800 L 0 340.99856342946913 Z" transform="matrix(1,0,0,1,0,210)" opacity="0.84"></path><path d="M 0 335.46397256804886 Q 450 516.8195829678126 600 330.2939025175893 Q 1050 576.865878659349 1200 305.1977264534213 Q 1650 476.4300375680506 1800 327.1182278828518 Q 2250 572.7243258207235 2400 330.70121660002746 L 2400 800 L 0 800 L 0 340.99856342946913 Z" transform="matrix(1,0,0,1,0,245)" opacity="1"></path></g></svg>