<svg xmlns="http://www.w3.org/2000/svg" version="1.1" xmlns:xlink="http://www.w3.org/1999/xlink" xmlns:svgjs="http://svgjs.dev/svgjs" viewBox="0 0 800 800" width="800" height="800"><g stroke-width="2.75" stroke="#0693e3" fill="none"><circle r="3.3421052631578947" cx="0" cy="0" fill="#0693e3" stroke="none"></circle><circle r="3.3421052631578947" cx="100" cy="0" fill="#0693e3" stroke="none"></circle><circle r="3.3421052631578947" cx="200" cy="0" fill="#0693e3" stroke="none"></circle><circle r="3.3421052631578947" cx="300" cy="0" fill="#0693e3" stroke="none"></circle><circle r="3.3421052631578947" cx="400" cy="0" fill="#0693e3" stroke="none"></circle><circle r="3.3421052631578947" cx="500" cy="0" fill="#0693e3" stroke="none"></circle><circle r="3.3421052631578947" cx="600" cy="0" fill="#0693e3" stroke="none"></circle><circle r="3.3421052631578947" cx="700" cy="0" fill="#0693e3" stroke="none"></circle><circle r="3.3421052631578947" cx="800" cy="0" fill="#0693e3" stroke="none"></circle><circle r="3.3421052631578947" cx="0" cy="47.05882352941177" fill="#0693e3" stroke="none"></circle><circle r="3.3421052631578947" cx="100" cy="47.05882352941177" fill="#0693e3" stroke="none"></circle><circle r="3.3421052631578947" cx="200" cy="47.05882352941177" fill="#0693e3" stroke="none"></circle><circle r="3.3421052631578947" cx="300" cy="47.05882352941177" fill="#0693e3" stroke="none"></circle><circle r="3.3421052631578947" cx="400" cy="47.05882352941177" fill="#0693e3" stroke="none"></circle><circle r="3.3421052631578947" cx="500" cy="47.05882352941177" fill="#0693e3" stroke="none"></circle><circle r="3.3421052631578947" cx="600" cy="47.05882352941177" fill="#0693e3" stroke="none"></circle><circle r="3.3421052631578947" cx="700" cy="47.05882352941177" fill="#0693e3" stroke="none"></circle><circle r="3.3421052631578947" cx="800" cy="47.05882352941177" fill="#0693e3" stroke="none"></circle><circle r="3.3421052631578947" cx="0" cy="94.11764705882354" fill="#0693e3" stroke="none"></circle><circle r="3.3421052631578947" cx="100" cy="94.11764705882354" fill="#0693e3" stroke="none"></circle><circle r="3.3421052631578947" cx="200" cy="94.11764705882354" fill="#0693e3" stroke="none"></circle><circle r="3.3421052631578947" cx="300" cy="94.11764705882354" fill="#0693e3" stroke="none"></circle><circle r="3.3421052631578947" cx="400" cy="94.11764705882354" fill="#0693e3" stroke="none"></circle><circle r="3.3421052631578947" cx="500" cy="94.11764705882354" fill="#0693e3" stroke="none"></circle><circle r="3.3421052631578947" cx="600" cy="94.11764705882354" fill="#0693e3" stroke="none"></circle><circle r="3.3421052631578947" cx="700" cy="94.11764705882354" fill="#0693e3" stroke="none"></circle><circle r="3.3421052631578947" cx="800" cy="94.11764705882354" fill="#0693e3" stroke="none"></circle><circle r="3.3421052631578947" cx="0" cy="141.1764705882353" fill="#0693e3" stroke="none"></circle><circle r="3.3421052631578947" cx="100" cy="141.1764705882353" fill="#0693e3" stroke="none"></circle><circle r="3.3421052631578947" cx="200" cy="141.1764705882353" fill="#0693e3" stroke="none"></circle><circle r="3.3421052631578947" cx="300" cy="141.1764705882353" fill="#0693e3" stroke="none"></circle><circle r="3.3421052631578947" cx="400" cy="141.1764705882353" fill="#0693e3" stroke="none"></circle><circle r="3.3421052631578947" cx="500" cy="141.1764705882353" fill="#0693e3" stroke="none"></circle><circle r="3.3421052631578947" cx="600" cy="141.1764705882353" fill="#0693e3" stroke="none"></circle><circle r="3.3421052631578947" cx="700" cy="141.1764705882353" fill="#0693e3" stroke="none"></circle><circle r="3.3421052631578947" cx="800" cy="141.1764705882353" fill="#0693e3" stroke="none"></circle><circle r="3.3421052631578947" cx="0" cy="188.23529411764707" fill="#0693e3" stroke="none"></circle><circle r="3.3421052631578947" cx="100" cy="188.23529411764707" fill="#0693e3" stroke="none"></circle><circle r="3.3421052631578947" cx="200" cy="188.23529411764707" fill="#0693e3" stroke="none"></circle><circle r="3.3421052631578947" cx="300" cy="188.23529411764707" fill="#0693e3" stroke="none"></circle><circle r="3.3421052631578947" cx="400" cy="188.23529411764707" fill="#0693e3" stroke="none"></circle><circle r="3.3421052631578947" cx="500" cy="188.23529411764707" fill="#0693e3" stroke="none"></circle><circle r="3.3421052631578947" cx="600" cy="188.23529411764707" fill="#0693e3" stroke="none"></circle><circle r="3.3421052631578947" cx="700" cy="188.23529411764707" fill="#0693e3" stroke="none"></circle><circle r="3.3421052631578947" cx="800" cy="188.23529411764707" fill="#0693e3" stroke="none"></circle><circle r="3.3421052631578947" cx="0" cy="235.29411764705884" fill="#0693e3" stroke="none"></circle><circle r="3.3421052631578947" cx="100" cy="235.29411764705884" fill="#0693e3" stroke="none"></circle><circle r="3.3421052631578947" cx="200" cy="235.29411764705884" fill="#0693e3" stroke="none"></circle><circle r="3.3421052631578947" cx="300" cy="235.29411764705884" fill="#0693e3" stroke="none"></circle><circle r="3.3421052631578947" cx="400" cy="235.29411764705884" fill="#0693e3" stroke="none"></circle><circle r="3.3421052631578947" cx="500" cy="235.29411764705884" fill="#0693e3" stroke="none"></circle><circle r="3.3421052631578947" cx="600" cy="235.29411764705884" fill="#0693e3" stroke="none"></circle><circle r="3.3421052631578947" cx="700" cy="235.29411764705884" fill="#0693e3" stroke="none"></circle><circle r="3.3421052631578947" cx="800" cy="235.29411764705884" fill="#0693e3" stroke="none"></circle><circle r="3.3421052631578947" cx="0" cy="282.3529411764706" fill="#0693e3" stroke="none"></circle><circle r="3.3421052631578947" cx="100" cy="282.3529411764706" fill="#0693e3" stroke="none"></circle><circle r="3.3421052631578947" cx="200" cy="282.3529411764706" fill="#0693e3" stroke="none"></circle><circle r="3.3421052631578947" cx="300" cy="282.3529411764706" fill="#0693e3" stroke="none"></circle><circle r="3.3421052631578947" cx="400" cy="282.3529411764706" fill="#0693e3" stroke="none"></circle><circle r="3.3421052631578947" cx="500" cy="282.3529411764706" fill="#0693e3" stroke="none"></circle><circle r="3.3421052631578947" cx="600" cy="282.3529411764706" fill="#0693e3" stroke="none"></circle><circle r="3.3421052631578947" cx="700" cy="282.3529411764706" fill="#0693e3" stroke="none"></circle><circle r="3.3421052631578947" cx="800" cy="282.3529411764706" fill="#0693e3" stroke="none"></circle><circle r="3.3421052631578947" cx="0" cy="329.4117647058824" fill="#0693e3" stroke="none"></circle><circle r="3.3421052631578947" cx="100" cy="329.4117647058824" fill="#0693e3" stroke="none"></circle><circle r="3.3421052631578947" cx="200" cy="329.4117647058824" fill="#0693e3" stroke="none"></circle><circle r="3.3421052631578947" cx="300" cy="329.4117647058824" fill="#0693e3" stroke="none"></circle><circle r="3.3421052631578947" cx="400" cy="329.4117647058824" fill="#0693e3" stroke="none"></circle><circle r="3.3421052631578947" cx="500" cy="329.4117647058824" fill="#0693e3" stroke="none"></circle><circle r="3.3421052631578947" cx="600" cy="329.4117647058824" fill="#0693e3" stroke="none"></circle><circle r="3.3421052631578947" cx="700" cy="329.4117647058824" fill="#0693e3" stroke="none"></circle><circle r="3.3421052631578947" cx="800" cy="329.4117647058824" fill="#0693e3" stroke="none"></circle><circle r="3.3421052631578947" cx="0" cy="376.47058823529414" fill="#0693e3" stroke="none"></circle><circle r="3.3421052631578947" cx="100" cy="376.47058823529414" fill="#0693e3" stroke="none"></circle><circle r="3.3421052631578947" cx="200" cy="376.47058823529414" fill="#0693e3" stroke="none"></circle><circle r="3.3421052631578947" cx="300" cy="376.47058823529414" fill="#0693e3" stroke="none"></circle><circle r="3.3421052631578947" cx="400" cy="376.47058823529414" fill="#0693e3" stroke="none"></circle><circle r="3.3421052631578947" cx="500" cy="376.47058823529414" fill="#0693e3" stroke="none"></circle><circle r="3.3421052631578947" cx="600" cy="376.47058823529414" fill="#0693e3" stroke="none"></circle><circle r="3.3421052631578947" cx="700" cy="376.47058823529414" fill="#0693e3" stroke="none"></circle><circle r="3.3421052631578947" cx="800" cy="376.47058823529414" fill="#0693e3" stroke="none"></circle><circle r="3.3421052631578947" cx="0" cy="423.5294117647059" fill="#0693e3" stroke="none"></circle><circle r="3.3421052631578947" cx="100" cy="423.5294117647059" fill="#0693e3" stroke="none"></circle><circle r="3.3421052631578947" cx="200" cy="423.5294117647059" fill="#0693e3" stroke="none"></circle><circle r="3.3421052631578947" cx="300" cy="423.5294117647059" fill="#0693e3" stroke="none"></circle><circle r="3.3421052631578947" cx="400" cy="423.5294117647059" fill="#0693e3" stroke="none"></circle><circle r="3.3421052631578947" cx="500" cy="423.5294117647059" fill="#0693e3" stroke="none"></circle><circle r="3.3421052631578947" cx="600" cy="423.5294117647059" fill="#0693e3" stroke="none"></circle><circle r="3.3421052631578947" cx="700" cy="423.5294117647059" fill="#0693e3" stroke="none"></circle><circle r="3.3421052631578947" cx="800" cy="423.5294117647059" fill="#0693e3" stroke="none"></circle><circle r="3.3421052631578947" cx="0" cy="470.5882352941177" fill="#0693e3" stroke="none"></circle><circle r="3.3421052631578947" cx="100" cy="470.5882352941177" fill="#0693e3" stroke="none"></circle><circle r="3.3421052631578947" cx="200" cy="470.5882352941177" fill="#0693e3" stroke="none"></circle><circle r="3.3421052631578947" cx="300" cy="470.5882352941177" fill="#0693e3" stroke="none"></circle><circle r="3.3421052631578947" cx="400" cy="470.5882352941177" fill="#0693e3" stroke="none"></circle><circle r="3.3421052631578947" cx="500" cy="470.5882352941177" fill="#0693e3" stroke="none"></circle><circle r="3.3421052631578947" cx="600" cy="470.5882352941177" fill="#0693e3" stroke="none"></circle><circle r="3.3421052631578947" cx="700" cy="470.5882352941177" fill="#0693e3" stroke="none"></circle><circle r="3.3421052631578947" cx="800" cy="470.5882352941177" fill="#0693e3" stroke="none"></circle><circle r="3.3421052631578947" cx="0" cy="517.6470588235295" fill="#0693e3" stroke="none"></circle><circle r="3.3421052631578947" cx="100" cy="517.6470588235295" fill="#0693e3" stroke="none"></circle><circle r="3.3421052631578947" cx="200" cy="517.6470588235295" fill="#0693e3" stroke="none"></circle><circle r="3.3421052631578947" cx="300" cy="517.6470588235295" fill="#0693e3" stroke="none"></circle><circle r="3.3421052631578947" cx="400" cy="517.6470588235295" fill="#0693e3" stroke="none"></circle><circle r="3.3421052631578947" cx="500" cy="517.6470588235295" fill="#0693e3" stroke="none"></circle><circle r="3.3421052631578947" cx="600" cy="517.6470588235295" fill="#0693e3" stroke="none"></circle><circle r="3.3421052631578947" cx="700" cy="517.6470588235295" fill="#0693e3" stroke="none"></circle><circle r="3.3421052631578947" cx="800" cy="517.6470588235295" fill="#0693e3" stroke="none"></circle><circle r="3.3421052631578947" cx="0" cy="564.7058823529412" fill="#0693e3" stroke="none"></circle><circle r="3.3421052631578947" cx="100" cy="564.7058823529412" fill="#0693e3" stroke="none"></circle><circle r="3.3421052631578947" cx="200" cy="564.7058823529412" fill="#0693e3" stroke="none"></circle><circle r="3.3421052631578947" cx="300" cy="564.7058823529412" fill="#0693e3" stroke="none"></circle><circle r="3.3421052631578947" cx="400" cy="564.7058823529412" fill="#0693e3" stroke="none"></circle><circle r="3.3421052631578947" cx="500" cy="564.7058823529412" fill="#0693e3" stroke="none"></circle><circle r="3.3421052631578947" cx="600" cy="564.7058823529412" fill="#0693e3" stroke="none"></circle><circle r="3.3421052631578947" cx="700" cy="564.7058823529412" fill="#0693e3" stroke="none"></circle><circle r="3.3421052631578947" cx="800" cy="564.7058823529412" fill="#0693e3" stroke="none"></circle><circle r="3.3421052631578947" cx="0" cy="611.7647058823529" fill="#0693e3" stroke="none"></circle><circle r="3.3421052631578947" cx="100" cy="611.7647058823529" fill="#0693e3" stroke="none"></circle><circle r="3.3421052631578947" cx="200" cy="611.7647058823529" fill="#0693e3" stroke="none"></circle><circle r="3.3421052631578947" cx="300" cy="611.7647058823529" fill="#0693e3" stroke="none"></circle><circle r="3.3421052631578947" cx="400" cy="611.7647058823529" fill="#0693e3" stroke="none"></circle><circle r="3.3421052631578947" cx="500" cy="611.7647058823529" fill="#0693e3" stroke="none"></circle><circle r="3.3421052631578947" cx="600" cy="611.7647058823529" fill="#0693e3" stroke="none"></circle><circle r="3.3421052631578947" cx="700" cy="611.7647058823529" fill="#0693e3" stroke="none"></circle><circle r="3.3421052631578947" cx="800" cy="611.7647058823529" fill="#0693e3" stroke="none"></circle><circle r="3.3421052631578947" cx="0" cy="658.8235294117646" fill="#0693e3" stroke="none"></circle><circle r="3.3421052631578947" cx="100" cy="658.8235294117646" fill="#0693e3" stroke="none"></circle><circle r="3.3421052631578947" cx="200" cy="658.8235294117646" fill="#0693e3" stroke="none"></circle><circle r="3.3421052631578947" cx="300" cy="658.8235294117646" fill="#0693e3" stroke="none"></circle><circle r="3.3421052631578947" cx="400" cy="658.8235294117646" fill="#0693e3" stroke="none"></circle><circle r="3.3421052631578947" cx="500" cy="658.8235294117646" fill="#0693e3" stroke="none"></circle><circle r="3.3421052631578947" cx="600" cy="658.8235294117646" fill="#0693e3" stroke="none"></circle><circle r="3.3421052631578947" cx="700" cy="658.8235294117646" fill="#0693e3" stroke="none"></circle><circle r="3.3421052631578947" cx="800" cy="658.8235294117646" fill="#0693e3" stroke="none"></circle><circle r="3.3421052631578947" cx="0" cy="705.8823529411764" fill="#0693e3" stroke="none"></circle><circle r="3.3421052631578947" cx="100" cy="705.8823529411764" fill="#0693e3" stroke="none"></circle><circle r="3.3421052631578947" cx="200" cy="705.8823529411764" fill="#0693e3" stroke="none"></circle><circle r="3.3421052631578947" cx="300" cy="705.8823529411764" fill="#0693e3" stroke="none"></circle><circle r="3.3421052631578947" cx="400" cy="705.8823529411764" fill="#0693e3" stroke="none"></circle><circle r="3.3421052631578947" cx="500" cy="705.8823529411764" fill="#0693e3" stroke="none"></circle><circle r="3.3421052631578947" cx="600" cy="705.8823529411764" fill="#0693e3" stroke="none"></circle><circle r="3.3421052631578947" cx="700" cy="705.8823529411764" fill="#0693e3" stroke="none"></circle><circle r="3.3421052631578947" cx="800" cy="705.8823529411764" fill="#0693e3" stroke="none"></circle><circle r="3.3421052631578947" cx="0" cy="752.9411764705881" fill="#0693e3" stroke="none"></circle><circle r="3.3421052631578947" cx="100" cy="752.9411764705881" fill="#0693e3" stroke="none"></circle><circle r="3.3421052631578947" cx="200" cy="752.9411764705881" fill="#0693e3" stroke="none"></circle><circle r="3.3421052631578947" cx="300" cy="752.9411764705881" fill="#0693e3" stroke="none"></circle><circle r="3.3421052631578947" cx="400" cy="752.9411764705881" fill="#0693e3" stroke="none"></circle><circle r="3.3421052631578947" cx="500" cy="752.9411764705881" fill="#0693e3" stroke="none"></circle><circle r="3.3421052631578947" cx="600" cy="752.9411764705881" fill="#0693e3" stroke="none"></circle><circle r="3.3421052631578947" cx="700" cy="752.9411764705881" fill="#0693e3" stroke="none"></circle><circle r="3.3421052631578947" cx="800" cy="752.9411764705881" fill="#0693e3" stroke="none"></circle><circle r="3.3421052631578947" cx="0" cy="799.9999999999998" fill="#0693e3" stroke="none"></circle><circle r="3.3421052631578947" cx="100" cy="799.9999999999998" fill="#0693e3" stroke="none"></circle><circle r="3.3421052631578947" cx="200" cy="799.9999999999998" fill="#0693e3" stroke="none"></circle><circle r="3.3421052631578947" cx="300" cy="799.9999999999998" fill="#0693e3" stroke="none"></circle><circle r="3.3421052631578947" cx="400" cy="799.9999999999998" fill="#0693e3" stroke="none"></circle><circle r="3.3421052631578947" cx="500" cy="799.9999999999998" fill="#0693e3" stroke="none"></circle><circle r="3.3421052631578947" cx="600" cy="799.9999999999998" fill="#0693e3" stroke="none"></circle><circle r="3.3421052631578947" cx="700" cy="799.9999999999998" fill="#0693e3" stroke="none"></circle><circle r="3.3421052631578947" cx="800" cy="799.9999999999998" fill="#0693e3" stroke="none"></circle></g></svg>